<?xml version="1.0" encoding="utf-8"?>
<!-- Generator: Adobe Illustrator 24.0.2, SVG Export Plug-In . SVG Version: 6.00 Build 0)  -->
<svg version="1.1" id="Capa_1" xmlns="http://www.w3.org/2000/svg" xmlns:xlink="http://www.w3.org/1999/xlink" x="0px" y="0px"
	 viewBox="0 0 447.8 614.1" style="enable-background:new 0 0 447.8 614.1;" xml:space="preserve">
<style type="text/css">
	.st0{fill:#FFFFFF;}
</style>
<title>MarkN</title>
<path class="st0" d="M429.4,7.4L429.4,7.4c-19.3-13.2-45.7-8.3-59,11L222,234.7L120.5,85.2l164.2-0.6c0,0,34.6-4.4,37.8-40.1
	c0,0,1.4-37.8-39-41.6L45.8,3.2l1.1,0.1c-15.2-1-27.1,7.7-27.1,7.7C-7.9,33.7,7.9,64.8,7.9,64.8l164,242.9L7.4,547.6
	c-13.2,19.3-8.3,45.7,11,59l0,0c19.3,13.2,45.7,8.3,59-11l145.8-212.5L323,530l-164.3,0.6c0,0-34.6,4.4-37.8,40.1
	c0,0-1.4,37.8,39,41.6l237.7-0.2l-0.9-0.1c15.2,1,27-7.7,27-7.7c27.6-22.8,11.8-53.9,11.8-53.9L273.3,310.1L440.4,66.5
	C453.6,47.1,448.7,20.7,429.4,7.4C429.4,7.4,429.4,7.4,429.4,7.4z"/>
</svg>
