<svg id="Capa_1" data-name="Capa 1" xmlns="http://www.w3.org/2000/svg" viewBox="0 0 481.44 419.99"><defs><style>.cls-1{fill:#fff;}</style></defs><title>myfreeqrN</title><path class="cls-1" d="M532.7,1039.07c0,14.16-.08,28.31.06,42.46,0,3.22-.87,4.35-4.21,4.33q-43.2-.16-86.42,0c-3,0-4-.79-4-3.93q.16-43.45,0-86.91c0-2.76.72-3.82,3.63-3.81q43.71.12,87.42,0c3.53,0,3.57,1.86,3.56,4.43C532.67,1010.1,532.7,1024.59,532.7,1039.07Zm-79-1c0,9.48.14,19-.08,28.45-.08,3.57.73,5,4.64,4.9,18.13-.2,36.27-.15,54.4,0,3.34,0,4.66-.77,4.62-4.4-.16-19-.13-37.93,0-56.9,0-3.09-.69-4.44-4.12-4.42q-27.7.21-55.4,0c-3.47,0-4.14,1.38-4.09,4.44C453.8,1019.41,453.71,1028.73,453.71,1038Z" transform="translate(-328.4 -991.03)"/><path class="cls-1" d="M485.52,1163.26c14.15,0,28.31.12,42.46-.08,3.71,0,4.82,1,4.8,4.78q-.22,42.7,0,85.41c0,3.51-1,4.53-4.52,4.52q-43-.18-85.92,0c-3.28,0-4.25-1-4.23-4.24q.16-43,0-85.92c0-3.46.94-4.57,4.47-4.53C456.88,1163.37,471.2,1163.26,485.52,1163.26Zm-31.81,47.08c0,9.31.16,18.63-.08,27.94-.09,3.79.82,5.22,4.93,5.17,18-.23,35.94-.19,53.91,0,3.66,0,4.87-.94,4.83-4.74q-.27-28.2,0-56.39c0-4-1.46-4.63-4.95-4.6q-27,.22-53.9,0c-3.64,0-4.95.88-4.84,4.71C453.89,1191.7,453.71,1201,453.71,1210.34Z" transform="translate(-328.4 -991.03)"/><path class="cls-1" d="M704.45,1210.6c0,14.31-.08,28.62.07,42.93,0,3.14-.67,4.36-4.12,4.35q-43.18-.2-86.37,0c-3.45,0-4.13-1.3-4.12-4.4q.14-42.93,0-85.86c0-3.67,1.32-4.4,4.65-4.39q42.69.15,85.37,0c4,0,4.65,1.47,4.61,5C704.36,1182.31,704.45,1196.45,704.45,1210.6Zm-15.47-.09c0-9.33-.15-18.65.07-28,.09-3.61-.8-4.93-4.67-4.89q-27.23.28-54.45,0c-3.61,0-4.92.8-4.88,4.68.2,18.81.16,37.63,0,56.45,0,3.34.76,4.69,4.41,4.66q27.48-.24,54.95,0c4,0,4.69-1.47,4.61-5C688.84,1229.16,689,1219.83,689,1210.51Z" transform="translate(-328.4 -991.03)"/><path class="cls-1" d="M610,1038.57c0-14.14.15-28.29-.1-42.43-.07-4.08,1.26-5,5.11-5q42.43.23,84.87,0c3.84,0,4.7,1.16,4.68,4.82q-.21,42.42,0,84.86c0,4-1.22,5-5.09,5q-42.44-.21-84.87,0c-3.85,0-4.75-1.23-4.7-4.87C610.08,1066.86,610,1052.71,610,1038.57Zm15.17,0c0,9.49.1,19-.06,28.47-.06,3.17.77,4.38,4.16,4.36q27.74-.23,55.45,0c3.19,0,4.38-.8,4.35-4.18-.14-19.15-.11-38.29,0-57.44,0-2.93-.75-4.15-3.91-4.14q-28,.18-56,0c-3.5,0-4.12,1.44-4.07,4.48C625.23,1019.59,625.14,1029.08,625.14,1038.57Z" transform="translate(-328.4 -991.03)"/><path class="cls-1" d="M571.19,1151.93c-20.31,0-40.63-.07-60.94.07-3.65,0-5.34-.53-5.2-4.83.31-9.16,0-9.17,9.28-9.17,1.17,0,2.34-.08,3.5,0,4.68.39,8.85.32,7.53-6.43-.37-1.94,1-2.58,2.78-2.52a32.16,32.16,0,0,0,4.5,0c4.6-.52,7.94.15,6.82,6.09-.31,1.67.4,2.89,2.46,2.84,1.78,0,2.29-1,2.29-2.55,0-6.66-.05-13.32,0-20,0-2.6-1.52-2.93-3.57-2.92-6.33,0-12.67-.2-19,.08-4,.17-5.61-.75-5.48-5.15.28-9.13,0-9.13,9.35-9.13s18.66.13,28-.07c3.72-.08,5.39.71,5.24,4.93-.28,8.06-1.17,7.4,7.43,7.43,4.5,0,9-.19,13.49.06,3.54.2,4.57-1.14,4.54-4.59-.07-7.76.09-7.76,8-7.76,9.82,0,19.65.16,29.47-.09,3.81-.09,4.82,1.18,4.77,4.86-.11,9.43.06,9.43-9.54,9.43-5,0-10,.08-15,0-2.51,0-3.62.84-3.57,3.47q.17,9.24,0,18.48c0,2.49.7,3.8,3.4,3.57a21.73,21.73,0,0,1,4.49,0c3.92.5,6.09-.64,5.41-5.06-.47-3.06,1-4.23,4-3.94a25.83,25.83,0,0,0,5.49,0c3.65-.44,5.39.8,4.78,4.66-.58,3.66,1.3,4.5,4.61,4.41,2.18-.07,5.59-1.35,6.41,1,1.3,3.68.94,7.94.14,11.81-.38,1.88-2.9,1-4.46,1.05Q601.92,1152,571.19,1151.93Zm.2-27c-1.48,0-3,0-4.46,0-9.92.27-8.49-2.11-8.77,9-.09,3.41,1.33,4.25,4.43,4.13,5-.19,9.93,0,14.89,0,6.7,0,6.7,0,6.7-6.65,0-6.47,0-6.47-6.33-6.48Z" transform="translate(-328.4 -991.03)"/><path class="cls-1" d="M598.42,1038.43c0,14.14-.15,28.29.09,42.43.07,4.06-1.26,5.08-5.12,5-9.65-.16-9.66,0-9.66-9.88,0-8.65-.12-17.31.07-26,.06-3.19-.84-4.51-4.18-4.39-5.65.2-11.32.19-17,0-3-.1-4,1-4,4,.15,10.48-.11,21,.14,31.45.09,3.8-1.13,4.81-4.82,4.76-9.74-.12-9.74,0-9.75-9.7,0-13.48.08-27-.12-40.44-.05-3.52,1-4.57,4.53-4.5,10.32.2,20.64,0,31,.13,3.25.05,4.37-1,4.23-4.29-.24-5.65-.26-11.33,0-17,.18-3.63-1.28-4.5-4.63-4.45-10.15.17-20.31-.06-30.46.13-3.4.06-4.61-.86-4.59-4.45,0-10.09-.12-10.08,9.85-10.09,12.81,0,25.64.26,38.44-.21,5.34-.19,6.29,1.61,6.17,6.45-.32,13.64-.11,27.29-.11,40.94Z" transform="translate(-328.4 -991.03)"/><path class="cls-1" d="M598.47,1210.58c0,14.15-.1,28.3.07,42.45,0,3.48-.56,5-4.58,4.94-15.14-.26-30.29-.21-45.44-.1-3.12,0-4.38-.67-4.4-4.11-.08-10.42-.24-10.41,10-10.41,8.32,0,16.65-.12,25,.05,3.29.07,4.86-.71,4.68-4.4-.28-5.64-.25-11.32,0-17,.14-3.3-1-4.31-4.24-4.26-10.32.16-20.64-.07-31,.13-3.5.07-4.56-1-4.52-4.5q.28-23,0-45.94c0-3.42,1.23-4.21,4.37-4.14,12.34.3,10-1.4,10.16,9.85.13,8.65.15,17.31,0,26-.06,3.26,1,4.42,4.26,4.29,5.49-.22,11-.24,16.48,0,3.58.16,4.5-1.26,4.44-4.63-.18-10.32.07-20.64-.14-31-.07-3.55,1.12-4.61,4.58-4.51,12.32.34,10-1.53,10.15,9.81.14,12.49,0,25,0,37.45Z" transform="translate(-328.4 -991.03)"/><path class="cls-1" d="M383.19,1347.13c-5.34,11.94-10.73,23.85-16,35.83-1.06,2.4-1.86,4.13-5.18,4.15s-4.55-1.63-5.69-4.24c-5.41-12.31-10.93-24.57-17-38.2-.13,2.67-.26,4-.26,5.34,0,11-.09,22,.05,33,0,2.86-.43,4.16-3.75,4-8.36-.33-6.83.69-6.86-6.92-.09-17.15.07-34.31-.11-51.47,0-3.62.79-4.71,4.63-4.85,5-.17,7.52,1.22,9.54,6.1,5.89,14.28,12.5,28.26,18.85,42.4,1.86-.46,1.87-2.22,2.42-3.44,6.21-13.79,12.32-27.63,18.48-41.44,1.26-2.84,9.63-5.06,12-3.2,1.1.85.67,2.16.67,3.27,0,18.65-.12,37.31.1,56,.06,5.19-3.37,3.22-5.72,3.46-2.65.26-5.18.65-5-3.75.31-10.31.1-20.65.1-31v-4.85Z" transform="translate(-328.4 -991.03)"/><path class="cls-1" d="M465.22,1152c-7.65,0-15.3-.09-23,0-2.81,0-4.19-.48-4.16-3.78.16-15.63.12-31.27,0-46.9,0-2.75.8-4.12,3.67-3.8a2.78,2.78,0,0,0,.5,0c9.87-.33,10.08-.33,9.95,9.33-.06,4.15,1.55,5,5.27,4.91,10.31-.24,20.63-.07,30.94-.25,3.15-.06,4.43.85,4.37,4.22-.18,10.64-.21,21.29,0,31.93.08,3.7-1.4,4.44-4.68,4.36C480.52,1151.87,472.87,1152,465.22,1152Zm.22-14c1.82,0,3.64,0,5.47,0,8.35-.17,7.6,1.64,7.83-8.09.08-3.3-1-4.36-4.26-4.23-5.29.22-10.59.06-15.89.06-6.49,0-6.17,0-6.59,6.33-.32,4.79,1.17,6.64,6,6A55.93,55.93,0,0,1,465.44,1138Z" transform="translate(-328.4 -991.03)"/><path class="cls-1" d="M677.15,1152c-7.65,0-15.3-.12-22.95.06-3.14.07-4.45-.73-4.38-4.14.18-10.65.2-21.3,0-31.94-.08-3.68,1.38-4.49,4.69-4.42,10.31.23,20.63.09,30.94.36,3.61.09,4.94-.88,4.92-4.73-.08-10.49.54-10.81,11.2-9.65,2.1.23,2.9,1,2.89,3.06,0,16.14-.06,32.27,0,48.41,0,3-1.75,3-3.88,3C692.79,1152,685,1152,677.15,1152Zm-.39-14h5.47c8.57,0,8.43,0,8.13-8.77-.1-3-1.33-3.59-3.93-3.54-5.8.12-11.62.31-17.4-.06-4.31-.27-5.32,1.37-5.15,5.38.35,7.91-.67,6.91,6.91,7C672.78,1138,674.77,1138,676.76,1138Z" transform="translate(-328.4 -991.03)"/><path class="cls-1" d="M766.35,1398.16c-7.15.63-13.49,1.84-17.8-5.11-3.15-5.06-7.52-6.27-13.83-5.69-18.37,1.67-33.84-13.71-33.59-32.26a32.32,32.32,0,1,1,64.35,4.49c-1.2,8.45-4.74,15.57-11.47,20.88-1.88,1.48-2.18,2.28-.33,4.11C757.88,1388.77,761.81,1393.25,766.35,1398.16Zm-11.41-42.78c0-13.89-8.34-23-21.2-23.25S712,1341.38,712,1355.38c0,13.66,8.59,23.11,21.27,23.35S754.94,1369.37,754.94,1355.38Z" transform="translate(-328.4 -991.03)"/><path class="cls-1" d="M602.63,1366c-5.17,0-10.34.17-15.5,0-3.18-.14-3.71,1-2.89,3.79,2.75,9.08,16.08,13,22.36,5.88,3.32-3.73,6.76-3.31,10.63-3.5,3.35-.16,3.06,1.27,1.95,3.59-3.9,8.16-14.2,13.3-24.42,12.06-10.9-1.33-18.59-8.22-21.18-19-2.69-11.22,1.25-22.81,9.69-28.49a26.47,26.47,0,0,1,29.2.41c7.89,5.6,9.94,13.71,9.54,22.85-.11,2.52-1.65,2.45-3.39,2.44C613.29,1365.94,608,1366,602.63,1366Zm-5.41-8.37c3.32,0,6.64-.19,9.93,0,4.66.33,4.5-1.89,3.09-5.11-2.23-5.08-7.37-7.92-13.86-7.57a13.53,13.53,0,0,0-12,8.93c-1.06,3,0,3.86,2.9,3.74C590.6,1357.47,593.91,1357.58,597.22,1357.58Z" transform="translate(-328.4 -991.03)"/><path class="cls-1" d="M684.7,1372.39c-2.75,7.78-7.94,12.54-15.49,14.46-9.51,2.41-18.28.71-25.32-6.47-7.82-8-9.15-22.42-3.33-32.59,5.31-9.25,16.07-13.49,27.69-10.91,12,2.67,19.82,14.57,17.93,26.79-.47,3-2.35,2.25-4,2.26-10.16,0-20.33.17-30.48,0-3.74-.08-4.26,1-3,4.27,3.25,8.47,15.35,12.44,21.38,6.06C674.56,1371.48,679.09,1371.93,684.7,1372.39Zm-23.06-14.81c3.33,0,6.67-.21,10,.05,4.43.34,4.19-1.94,3-4.86-2-5.19-7.65-8.25-14.28-7.83a13.56,13.56,0,0,0-12,9.7c-.66,2.36.1,3,2.3,2.95C654.32,1357.53,658,1357.57,661.64,1357.58Z" transform="translate(-328.4 -991.03)"/><path class="cls-1" d="M462,1337c-2.72,6.53-5.27,12.62-7.81,18.73q-10.55,25.29-21.08,50.59c-1.51,3.62-7.71,5.91-11,4.13-1.67-.89-.54-2-.17-2.9,2.38-5.85,4.67-11.74,7.31-17.47a9.22,9.22,0,0,0,0-8c-5.52-13.54-10.78-27.17-16.36-40.68-1.43-3.46-1.1-4.27,2.88-4.56,5.36-.39,7.82,1.28,9.47,6.52,3.22,10.29,7.33,20.29,11.24,30.85,2.71-3.89,3.62-8.11,5.21-12,2.63-6.45,5.27-12.93,7.35-19.57,1.43-4.55,3.83-6.48,8.53-5.66A28.32,28.32,0,0,0,462,1337Z" transform="translate(-328.4 -991.03)"/><path class="cls-1" d="M478,1355.19c0-9.15.14-18.3-.07-27.44-.07-3.11.85-3.94,3.91-3.88,9.81.19,19.63.24,29.44,0,3.43-.09,4.07,1.11,4.1,4.22,0,3.32-.67,4.77-4.36,4.58-6.14-.3-12.31.06-18.46-.13-3.06-.1-4.21.92-4,4,.37,4.61-1.89,10.61.85,13.5s8.86.37,13.41,1c2.3.34,6.26-2.54,6.53,3.12.22,4.38-1,6-5.47,5.49-3.61-.4-7.33.14-11-.14s-4.51,1.24-4.39,4.6c.22,6.48-.1,13,.11,19.45.17,5.19-3.55,3.14-5.88,3.34s-5,1.09-4.88-3.27C478.2,1374.15,478,1364.67,478,1355.19Z" transform="translate(-328.4 -991.03)"/><path class="cls-1" d="M795.18,1342.61c3.38-3.16,6.71-5.39,11-6.21,2.5-.48,3.89-.19,3.68,2.75a34.63,34.63,0,0,0,0,5c.16,2.16-.76,2.71-2.86,2.9-9,.82-11.93,4-12,13-.05,7.31-.3,14.64.1,21.94.23,4.33-1.27,5.11-5.27,5.13-4.21,0-5.72-.81-5.6-5.42.36-13.13.12-26.27.14-39.4,0-2.67-1-6,3.87-5.42C791.74,1337.27,796.61,1335.49,795.18,1342.61Z" transform="translate(-328.4 -991.03)"/><path class="cls-1" d="M543.67,1342.94c3.88-3.77,7.2-5.78,11.24-6.58,2.42-.47,3.46.13,3.28,2.66a29.13,29.13,0,0,0,0,4.48c.21,2.42-.41,3.41-3.2,3.57-8.15.44-11.2,3.75-11.36,12-.14,7.65-.29,15.31.07,22.93.21,4.35-1.37,5.23-5.35,5.11-3.61-.1-5.63-.17-5.5-4.88.38-13.28,0-26.59.22-39.88,0-1.92-2-5.7,2.66-5.31C539.07,1337.3,544.55,1334.39,543.67,1342.94Z" transform="translate(-328.4 -991.03)"/><path class="cls-1" d="M580.43,1072.14v3.5c0,10.77,0,10.7-10.8,10.21-2.46-.11-3.61-.67-3.55-3.4.15-7,.12-14,0-21,0-2.41.93-3.06,3.22-3.22,11.13-.78,11.12-.84,11.12,10.39Z" transform="translate(-328.4 -991.03)"/><path class="cls-1" d="M580.43,1177.12c0,2.16,0,4.32,0,6.48,0,8,.7,7.16-7.26,7.15-8.24,0-6.95.81-7-7.25,0-5.48.11-11-.06-16.44-.09-2.82.9-3.79,3.72-3.73,13.18.29,10.28-1.6,10.63,10.3C580.46,1174.8,580.43,1176,580.43,1177.12Z" transform="translate(-328.4 -991.03)"/><path class="cls-1" d="M453.71,1038c0-9.31.09-18.63,0-27.95-.05-3.06.62-4.47,4.09-4.44q27.71.21,55.4,0c3.43,0,4.14,1.33,4.12,4.42-.11,19-.14,37.93,0,56.9,0,3.63-1.28,4.42-4.62,4.4-18.13-.13-36.27-.18-54.4,0-3.91,0-4.72-1.33-4.64-4.9C453.85,1057,453.71,1047.52,453.71,1038Zm11.48,0c0,5.65.11,11.31,0,17-.08,2.68.57,3.9,3.56,3.86q16.73-.2,33.45,0c2.78,0,3.8-.87,3.76-3.72-.12-11.15-.09-22.3,0-33.44,0-2.47-.67-3.63-3.37-3.6q-17,.15-34,0c-2.59,0-3.52.85-3.44,3.47C465.3,1027.09,465.2,1032.59,465.19,1038.08Z" transform="translate(-328.4 -991.03)"/><path class="cls-1" d="M453.71,1210.34c0-9.32.18-18.64-.09-27.95-.11-3.83,1.2-4.74,4.84-4.71q26.94.25,53.9,0c3.49,0,5,.61,4.95,4.6q-.31,28.18,0,56.39c0,3.8-1.17,4.78-4.83,4.74-18-.16-35.94-.2-53.91,0-4.11,0-5-1.38-4.93-5.17C453.87,1229,453.71,1219.65,453.71,1210.34Zm31.9,20.55c5.49,0,11-.1,16.47,0,2.72.07,3.88-.72,3.85-3.65q-.19-16.71,0-33.44c0-2.9-1.08-3.7-3.82-3.68q-16.73.16-33.44,0c-2.52,0-3.55.69-3.52,3.39q.17,17,0,33.94c0,2.67.94,3.48,3.49,3.43C474.29,1230.8,480,1230.89,485.61,1230.89Z" transform="translate(-328.4 -991.03)"/><path class="cls-1" d="M689,1210.51c0,9.32-.14,18.65.06,28,.08,3.51-.64,5-4.61,5q-27.46-.29-54.95,0c-3.65,0-4.43-1.32-4.41-4.66.14-18.82.18-37.64,0-56.45,0-3.88,1.27-4.71,4.88-4.68q27.23.24,54.45,0c3.87,0,4.76,1.28,4.67,4.89C688.83,1191.86,689,1201.18,689,1210.51Zm-11.81-.07c0-5.5-.12-11,.05-16.49.09-2.8-.81-3.81-3.68-3.77q-16.49.18-33,0c-2.8,0-3.82,1-3.79,3.77q.15,16.74,0,33.47c0,2.6.93,3.5,3.51,3.48q16.74-.15,33.47,0c2.59,0,3.53-.88,3.46-3.49C677.07,1221.77,677.17,1216.1,677.17,1210.44Z" transform="translate(-328.4 -991.03)"/><path class="cls-1" d="M625.14,1038.57c0-9.49.09-19,0-28.47-.05-3,.57-4.51,4.07-4.48q28,.23,56,0c3.16,0,3.93,1.21,3.91,4.14-.09,19.15-.12,38.29,0,57.44,0,3.38-1.16,4.2-4.35,4.18q-27.72-.18-55.45,0c-3.39,0-4.22-1.19-4.16-4.36C625.24,1057.55,625.14,1048.06,625.14,1038.57Zm52-.25c0-5.33-.12-10.66.05-16,.09-2.83-.48-4.25-3.77-4.2-11,.17-22,.14-33,0-2.87,0-3.74,1-3.71,3.79.11,11,.13,22,0,33,0,3.11,1.14,4,4.11,4,10.82-.12,21.65-.15,32.48,0,3.16,0,4-1.14,3.88-4.1C677,1049.31,677.17,1043.81,677.17,1038.32Z" transform="translate(-328.4 -991.03)"/><path class="cls-1" d="M571.39,1124.89h6.46c6.33,0,6.33,0,6.33,6.48,0,6.64,0,6.65-6.7,6.65-5,0-9.93-.14-14.89,0-3.1.12-4.52-.72-4.43-4.13.28-11.15-1.15-8.77,8.77-9C568.41,1124.86,569.91,1124.89,571.39,1124.89Z" transform="translate(-328.4 -991.03)"/><path class="cls-1" d="M465.44,1138a55.93,55.93,0,0,0-7.44,0c-4.83.65-6.32-1.2-6-6,.42-6.3.1-6.33,6.59-6.33,5.3,0,10.6.16,15.89-.06,3.24-.13,4.34.93,4.26,4.23-.23,9.73.52,7.92-7.83,8.09C469.08,1138.05,467.26,1138,465.44,1138Z" transform="translate(-328.4 -991.03)"/><path class="cls-1" d="M676.76,1138c-2,0-4,0-6,0-7.58-.08-6.56.92-6.91-7-.17-4,.84-5.65,5.15-5.38,5.78.37,11.6.18,17.4.06,2.6,0,3.83.55,3.93,3.54.3,8.77.44,8.77-8.13,8.77Z" transform="translate(-328.4 -991.03)"/><path class="cls-1" d="M754.94,1355.38c0,14-8.93,23.59-21.7,23.35S712,1369,712,1355.38c0-14,8.87-23.45,21.77-23.25S755,1341.49,754.94,1355.38Z" transform="translate(-328.4 -991.03)"/><path class="cls-1" d="M597.22,1357.58c-3.31,0-6.62-.11-9.93,0-2.9.12-4-.72-2.9-3.74a13.53,13.53,0,0,1,12-8.93c6.49-.35,11.63,2.49,13.86,7.57,1.41,3.22,1.57,5.44-3.09,5.11C603.86,1357.39,600.54,1357.58,597.22,1357.58Z" transform="translate(-328.4 -991.03)"/><path class="cls-1" d="M661.64,1357.58c-3.66,0-7.32,0-11,0-2.2,0-3-.59-2.3-2.95a13.56,13.56,0,0,1,12-9.7c6.63-.42,12.27,2.64,14.28,7.83,1.14,2.92,1.38,5.2-3,4.86C668.31,1357.37,665,1357.58,661.64,1357.58Z" transform="translate(-328.4 -991.03)"/><path class="cls-1" d="M465.2,1038.08c0-5.49.1-11-.05-16.47-.08-2.62.85-3.5,3.44-3.47q17,.14,34,0c2.7,0,3.39,1.13,3.37,3.6-.08,11.14-.11,22.29,0,33.44,0,2.85-1,3.75-3.76,3.72q-16.73-.17-33.45,0c-3,0-3.64-1.18-3.56-3.86C465.3,1049.39,465.19,1043.73,465.2,1038.08Z" transform="translate(-328.4 -991.03)"/><path class="cls-1" d="M485.61,1230.89c-5.66,0-11.32-.09-17,0-2.55,0-3.52-.76-3.49-3.43q.17-17,0-33.94c0-2.7,1-3.41,3.52-3.39q16.71.13,33.44,0c2.74,0,3.85.78,3.82,3.68q-.19,16.73,0,33.44c0,2.93-1.13,3.72-3.85,3.65C496.6,1230.79,491.1,1230.89,485.61,1230.89Z" transform="translate(-328.4 -991.03)"/><path class="cls-1" d="M677.17,1210.44c0,5.66-.1,11.33,0,17,.07,2.61-.87,3.51-3.46,3.49q-16.72-.15-33.47,0c-2.58,0-3.53-.88-3.51-3.48q.13-16.73,0-33.47c0-2.82,1-3.8,3.79-3.77q16.49.15,33,0c2.87,0,3.77,1,3.68,3.77C677.05,1199.44,677.17,1204.94,677.17,1210.44Z" transform="translate(-328.4 -991.03)"/><path class="cls-1" d="M677.17,1038.32c0,5.49-.14,11,.06,16.48.1,3-.72,4.15-3.88,4.1-10.83-.16-21.66-.13-32.48,0-3,0-4.15-.87-4.11-4,.13-11,.11-22,0-33,0-2.78.84-3.83,3.71-3.79,11,.12,22,.15,33,0,3.29,0,3.86,1.37,3.77,4.2C677.05,1027.66,677.17,1033,677.17,1038.32Z" transform="translate(-328.4 -991.03)"/></svg>